<svg width="32" height="32" viewBox="0 0 32 32" fill="none" xmlns="http://www.w3.org/2000/svg">
<g clip-path="url(#clip0_166_5)">
<circle cx="16" cy="16" r="16" fill="#09090B"/>
<path d="M21.043 6.1875C21.1367 6.19922 21.1836 6.24609 21.1836 6.32812C21.043 7.39453 20.9727 8.05078 20.9727 8.29688H21.043C21.2891 8.14453 21.6172 7.69922 22.0273 6.96094L22.168 6.89062C22.2617 6.89062 22.3086 6.96094 22.3086 7.10156C22.0742 8.14453 21.957 8.70703 21.957 8.78906C22.0977 9.30469 22.2383 9.5625 22.3789 9.5625C22.8945 8.53125 23.2227 8.01562 23.3633 8.01562C23.6797 8.14453 23.8672 8.28516 23.9258 8.4375V8.50781C23.5977 9.5625 23.4336 10.1719 23.4336 10.3359L23.7148 11.4609V11.5312C23.6445 11.918 22.918 13.1133 21.5352 15.1172C20.375 16.6406 18.8047 19.9688 16.8242 25.1016C16.0039 26.1328 15.4414 26.6484 15.1367 26.6484H15.0664C14.9609 26.6484 14.8672 26.625 14.7852 26.5781C14.7148 26.5781 14.3867 26.7188 13.8008 27C13.625 26.6719 13.5078 26.5078 13.4492 26.5078C13.168 26.6484 12.8867 26.8125 12.6055 27H12.5352C12.3477 26.918 12.2539 26.7539 12.2539 26.5078V26.3672C12.4414 25.7695 12.5352 25.3711 12.5352 25.1719C12.5352 24.9375 12.1836 24.0938 11.4805 22.6406C10.3555 19.957 9.44141 17.3789 8.73828 14.9062C7.89453 11.6836 7.47266 9.78516 7.47266 9.21094V7.45312L7.54297 6.75H7.61328L8.45703 7.59375L8.52734 7.45312V6.96094C8.52734 6.76172 8.57422 6.57422 8.66797 6.39844C9.08984 6.63281 9.37109 6.75 9.51172 6.75C9.61719 6.75 9.94531 6.58594 10.4961 6.25781C11.5039 7.20703 12.3242 9.26953 12.957 12.4453C13.8945 15.7266 14.457 17.5547 14.6445 17.9297C14.9141 17.4727 15.2656 16.3711 15.6992 14.625C16.9883 11.1914 18.1133 9.19922 19.0742 8.64844C19.4375 8.35547 20.0234 7.53516 20.832 6.1875H21.043Z" fill="#FAFAFA"/>
</g>
<defs>
<clipPath id="clip0_166_5">
<rect width="32" height="32" fill="white"/>
</clipPath>
</defs>
</svg>
