<svg width="23" height="29" viewBox="0 0 23 29" fill="none" xmlns="http://www.w3.org/2000/svg">
<path d="M18.8906 0.75C19.0156 0.765625 19.0781 0.828125 19.0781 0.9375C18.8906 2.35938 18.7969 3.23438 18.7969 3.5625H18.8906C19.2188 3.35938 19.6562 2.76562 20.2031 1.78125L20.3906 1.6875C20.5156 1.6875 20.5781 1.78125 20.5781 1.96875C20.2656 3.35938 20.1094 4.10938 20.1094 4.21875C20.2969 4.90625 20.4844 5.25 20.6719 5.25C21.3594 3.875 21.7969 3.1875 21.9844 3.1875C22.4062 3.35938 22.6562 3.54688 22.7344 3.75V3.84375C22.2969 5.25 22.0781 6.0625 22.0781 6.28125L22.4531 7.78125V7.875C22.3594 8.39062 21.3906 9.98438 19.5469 12.6562C18 14.6875 15.9062 19.125 13.2656 25.9688C12.1719 27.3438 11.4219 28.0312 11.0156 28.0312H10.9219C10.7812 28.0312 10.6562 28 10.5469 27.9375C10.4531 27.9375 10.0156 28.125 9.23438 28.5C9 28.0625 8.84375 27.8438 8.76562 27.8438C8.39062 28.0312 8.01562 28.25 7.64062 28.5H7.54688C7.29688 28.3906 7.17188 28.1719 7.17188 27.8438V27.6562C7.42188 26.8594 7.54688 26.3281 7.54688 26.0625C7.54688 25.75 7.07812 24.625 6.14062 22.6875C4.64062 19.1094 3.42188 15.6719 2.48438 12.375C1.35938 8.07812 0.796875 5.54688 0.796875 4.78125V2.4375L0.890625 1.5H0.984375L2.10938 2.625L2.20312 2.4375V1.78125C2.20312 1.51562 2.26562 1.26562 2.39062 1.03125C2.95312 1.34375 3.32812 1.5 3.51562 1.5C3.65625 1.5 4.09375 1.28125 4.82812 0.84375C6.17188 2.10938 7.26562 4.85938 8.10938 9.09375C9.35938 13.4688 10.1094 15.9062 10.3594 16.4062C10.7188 15.7969 11.1875 14.3281 11.7656 12C13.4844 7.42188 14.9844 4.76562 16.2656 4.03125C16.75 3.64062 17.5312 2.54688 18.6094 0.75H18.8906Z" fill="#E4E4E7"/>
</svg>
